<svg width="675" height="460" viewBox="0 0 675 460" fill="none" xmlns="http://www.w3.org/2000/svg">
<path d="M362.734 193.511C363.274 231.758 344.004 285.748 312.199 330.361C280.391 374.981 236.151 410.076 186.84 410.771C137.527 411.467 91.7642 377.64 58.1589 333.942C24.5574 290.25 3.22482 236.834 2.68528 198.591C2.14625 160.384 22.1445 121.497 54.6753 91.974C87.201 62.4552 132.217 42.3349 181.632 41.6377C231.047 40.9406 276.061 59.7901 308.855 88.3852C341.654 116.985 362.195 155.3 362.734 193.511Z" fill="#FF9448" stroke="#484848"/>
<path d="M211.395 109.09L211.945 109.923C218.492 106.165 227.356 103.783 237.161 103.644C247.413 103.5 256.704 105.837 263.437 109.706C270.181 113.581 274.277 118.937 274.36 124.819C274.443 130.701 270.5 136.17 263.868 140.234C257.247 144.292 248.025 146.89 237.773 147.034C227.968 147.173 219.041 145.041 212.39 141.469L211.864 142.317C217.054 146.003 220.12 150.691 220.192 155.774C220.275 161.656 216.332 167.126 209.7 171.19C203.079 175.247 193.857 177.845 183.605 177.99C173.353 178.134 164.062 175.798 157.329 171.928C150.585 168.053 146.489 162.697 146.406 156.815C146.334 151.732 149.267 146.959 154.351 143.129L153.801 142.296C147.254 146.054 138.39 148.437 128.585 148.575C118.334 148.719 109.042 146.383 102.309 142.514C95.5649 138.638 91.469 133.282 91.386 127.4C91.3031 121.519 95.2462 116.049 101.878 111.985C108.499 107.928 117.721 105.329 127.973 105.185C137.778 105.047 146.706 107.178 153.356 110.75L153.882 109.902C148.692 106.216 145.626 101.529 145.554 96.445C145.471 90.5633 149.414 85.0937 156.046 81.0297C162.667 76.9722 171.889 74.3742 182.141 74.2295C192.393 74.0849 201.684 76.4218 208.417 80.2908C215.161 84.1661 219.257 89.5223 219.34 95.404C219.412 100.488 216.479 105.26 211.395 109.09Z" fill="#18B800" stroke="#484848"/>
<path d="M584.755 316.1C562.577 341.497 517.869 365.333 470.297 375.493C422.721 385.654 372.454 382.102 339.074 352.954C305.692 323.805 295.028 274.148 298.313 225.31C301.598 176.476 318.821 128.64 340.996 103.246C363.147 77.879 399.432 64.3864 438.589 64.5594C477.739 64.7322 519.703 78.568 553.161 107.784C586.618 136.999 605.608 176.389 610.683 214.831C615.758 253.28 606.908 290.73 584.755 316.1Z" fill="#FF9448" stroke="#484848"/>
<path d="M533.35 169.805L533.194 170.791C539.781 172.256 547.108 176.013 553.744 181.808C560.683 187.866 565.515 194.974 567.734 201.547C569.958 208.133 569.533 214.08 566.143 217.962C562.753 221.844 556.917 223.067 550.092 221.751C543.28 220.437 535.586 216.607 528.648 210.548C522.012 204.754 517.302 197.999 514.962 191.67L514.006 191.957C515.303 197.484 514.588 202.377 511.658 205.733C508.268 209.615 502.432 210.838 495.606 209.521C488.795 208.208 481.101 204.377 474.162 198.319C467.224 192.26 462.392 185.152 460.172 178.58C457.948 171.993 458.374 166.047 461.764 162.164C464.694 158.809 469.446 157.44 475.097 157.981L475.253 156.995C468.666 155.53 461.339 151.772 454.703 145.978C447.765 139.919 442.932 132.812 440.713 126.239C438.489 119.653 438.914 113.706 442.304 109.824C445.694 105.941 451.53 104.719 458.355 106.035C465.167 107.349 472.861 111.179 479.799 117.238C486.435 123.032 491.145 129.787 493.485 136.116L494.441 135.828C493.144 130.302 493.859 125.409 496.789 122.053C500.18 118.171 506.015 116.948 512.841 118.265C519.652 119.578 527.346 123.409 534.285 129.467C541.223 135.526 546.055 142.633 548.275 149.206C550.499 155.792 550.073 161.739 546.683 165.621C543.753 168.977 539.001 170.345 533.35 169.805Z" fill="#18B800" stroke="#484848"/>
</svg>
