<svg width="310" height="213" viewBox="0 0 310 213" fill="none" xmlns="http://www.w3.org/2000/svg">
<path d="M158.999 140.158C158.999 173.965 123.623 200.944 79.9844 200.944C36.3458 200.944 0 173.965 0 140.158C0 106.35 36.3458 78.9438 79.9844 78.9438C123.623 78.9438 158.999 106.35 158.999 140.158Z" fill="#FF9448"/>
<path fill-rule="evenodd" clip-rule="evenodd" d="M92.7996 109.225C95.0967 107.545 96.4732 105.403 96.4732 103.071C96.4732 97.6728 89.1005 93.2968 80.006 93.2968C70.9114 93.2968 63.5387 97.6728 63.5387 103.071C63.5387 105.403 64.9152 107.545 67.2123 109.225C64.2686 107.591 60.3131 106.59 55.9638 106.59C46.8692 106.59 39.4966 110.966 39.4966 116.364C39.4966 121.762 46.8692 126.138 55.9638 126.138C60.3131 126.138 64.2686 125.137 67.2123 123.503C64.9152 125.183 63.5387 127.324 63.5387 129.657C63.5387 135.055 70.9114 139.431 80.006 139.431C89.1005 139.431 96.4732 135.055 96.4732 129.657C96.4732 127.324 95.0967 125.183 92.7996 123.503C95.7433 125.137 99.6988 126.138 104.048 126.138C113.143 126.138 120.515 121.762 120.515 116.364C120.515 110.966 113.143 106.59 104.048 106.59C99.6988 106.59 95.7433 107.591 92.7996 109.225Z" fill="#18B800"/>
<path d="M282.702 125.966C269.219 156.969 212.459 198.779 172.441 181.375C132.423 163.971 123.412 93.5569 136.895 62.5543C150.378 31.5518 197.43 14.4953 237.448 31.8992C277.466 49.303 296.185 94.9634 282.702 125.966Z" fill="#FF9448"/>
<path fill-rule="evenodd" clip-rule="evenodd" d="M237.123 64.7793C239.9 64.1545 242.016 62.7395 242.946 60.6006C245.099 55.6503 240.083 48.697 231.743 45.0699C223.403 41.4428 214.897 42.5155 212.744 47.4658C211.814 49.6047 212.222 52.1176 213.659 54.5746C211.611 51.9014 208.383 49.4061 204.395 47.6715C196.054 44.0445 187.548 45.1171 185.395 50.0674C183.243 55.0177 188.258 61.971 196.598 65.5981C200.587 67.3327 204.613 67.9924 207.965 67.6672C205.188 68.292 203.072 69.707 202.141 71.8459C199.988 76.7962 205.004 83.7495 213.344 87.3766C221.684 91.0037 230.19 89.931 232.343 84.9807C233.273 82.8418 232.865 80.3289 231.429 77.8719C233.476 80.5451 236.705 83.0404 240.693 84.7749C249.033 88.402 257.539 87.3294 259.692 82.3791C261.845 77.4288 256.829 70.4755 248.489 66.8484C244.501 65.1138 240.474 64.4541 237.123 64.7793Z" fill="#18B800"/>
</svg>
