<svg width="328" height="216" viewBox="0 0 328 216" fill="none" xmlns="http://www.w3.org/2000/svg">
<path d="M304.172 141.82C291.552 173.184 248.662 185.006 208.178 168.715C167.694 152.424 144.047 113.828 156.667 82.4647C169.288 51.1011 213.237 39.244 253.721 55.5346C294.205 71.8252 316.793 110.457 304.172 141.82Z" fill="#FF9448"/>
<path fill-rule="evenodd" clip-rule="evenodd" d="M254.305 88.4111C257.064 87.7098 259.14 86.2368 260.011 84.073C262.026 79.0651 256.82 72.2531 248.383 68.858C239.946 65.4629 231.472 66.7704 229.457 71.7783C228.587 73.9422 229.064 76.4429 230.568 78.8592C228.447 76.2436 225.151 73.8386 221.116 72.2149C212.679 68.8198 204.206 70.1273 202.191 75.1352C200.176 80.1432 205.382 86.9551 213.819 90.3502C217.854 91.9738 221.897 92.522 225.238 92.1042C222.48 92.8055 220.403 94.2785 219.533 96.4423C217.517 101.45 222.723 108.262 231.161 111.657C239.598 115.052 248.071 113.745 250.086 108.737C250.957 106.573 250.479 104.072 248.976 101.656C251.096 104.272 254.392 106.677 258.427 108.3C266.864 111.695 275.337 110.388 277.353 105.38C279.368 100.372 274.162 93.5602 265.725 90.1651C261.69 88.5415 257.647 87.9933 254.305 88.4111Z" fill="#18B800"/>
<path d="M172.861 61.4999C187.487 91.9798 181.974 162.261 142.63 181.14C103.287 200.02 44.1376 160.768 29.5114 130.288C14.8853 99.8077 32.7683 53.0636 72.1117 34.1842C111.455 15.3048 158.234 31.0199 172.861 61.4999Z" fill="#FF9448"/>
<path fill-rule="evenodd" clip-rule="evenodd" d="M96.7663 55.941C98.1104 53.4323 98.4248 50.9059 97.4157 48.803C95.0803 43.9362 86.5401 43.1805 78.3407 47.1151C70.1413 51.0497 65.3875 58.1846 67.723 63.0515C68.732 65.1544 70.8996 66.4897 73.6975 67.0108C70.3363 66.8104 66.3372 67.6193 62.4159 69.501C54.2165 73.4356 49.4628 80.5705 51.7982 85.4374C54.1336 90.3042 62.6738 91.0599 70.8732 87.1254C74.7944 85.2437 77.9276 82.6301 79.8742 79.8827C78.5302 82.3914 78.2157 84.9177 79.2248 87.0206C81.5602 91.8874 90.1004 92.6432 98.2998 88.7086C106.499 84.774 111.253 77.639 108.918 72.7722C107.908 70.6693 105.741 69.3339 102.943 68.8129C106.304 69.0133 110.303 68.2043 114.225 66.3227C122.424 62.3881 127.178 55.2531 124.842 50.3863C122.507 45.5194 113.967 44.7637 105.767 48.6983C101.846 50.5799 98.7129 53.1935 96.7663 55.941Z" fill="#18B800"/>
</svg>
