<svg width="298" height="203" viewBox="0 0 298 203" fill="none" xmlns="http://www.w3.org/2000/svg">
<path d="M159.946 85.2072C160.423 119.011 125.91 180.483 82.2759 181.098C38.6415 181.714 1.4392 121.254 0.962283 87.4502C0.485366 53.646 36.3421 18.7302 79.9765 18.1146C123.611 17.499 159.469 51.403 159.946 85.2072Z" fill="#FF9448"/>
<path fill-rule="evenodd" clip-rule="evenodd" d="M93.2176 48.2124C95.4908 46.4998 96.8369 44.339 96.804 42.0067C96.7278 36.6091 89.2942 32.3375 80.2005 32.4658C71.1068 32.5941 63.7966 37.0737 63.8728 42.4713C63.9057 44.8036 65.3122 46.9256 67.6328 48.5733C64.6664 46.9802 60.6972 46.0352 56.3483 46.0966C47.2546 46.2249 39.9444 50.7045 40.0206 56.1022C40.0967 61.4998 47.5303 65.7714 56.624 65.6431C60.9729 65.5818 64.9139 64.5253 67.8342 62.8491C65.561 64.5616 64.2149 66.7224 64.2478 69.0547C64.324 74.4523 71.7576 78.7239 80.8513 78.5956C89.945 78.4673 97.2552 73.9877 97.179 68.5901C97.1461 66.2578 95.7396 64.1358 93.419 62.4881C96.3854 64.0813 100.355 65.0262 104.704 64.9648C113.797 64.8365 121.107 60.3569 121.031 54.9592C120.955 49.5616 113.521 45.29 104.428 45.4183C100.079 45.4796 96.1379 46.5362 93.2176 48.2124Z" fill="#18B800"/>
<path d="M257.656 139.336C238.043 161.796 178.713 181.389 149.162 155.585C119.612 129.781 130.375 67.7783 149.988 45.3182C169.6 22.858 214.172 21.4915 243.723 47.2954C273.273 73.0993 277.268 116.875 257.656 139.336Z" fill="#FF9448"/>
<path fill-rule="evenodd" clip-rule="evenodd" d="M234.833 74.9906C237.364 75.2326 239.538 74.6237 240.891 73.0741C244.023 69.4879 241.569 62.2211 235.411 56.8434C229.252 51.4657 221.721 50.0135 218.59 53.5997C217.236 55.1493 216.926 57.3861 217.507 59.8606C216.462 57.0339 214.364 54.0301 211.419 51.4583C205.26 46.0806 197.729 44.6284 194.598 48.2147C191.466 51.801 193.92 59.0677 200.078 64.4454C203.023 67.0172 206.283 68.6912 209.224 69.3457C206.694 69.1037 204.519 69.7126 203.166 71.2622C200.035 74.8485 202.489 82.1152 208.647 87.4929C214.805 92.8706 222.337 94.3229 225.468 90.7366C226.821 89.187 227.132 86.9503 226.551 84.4757C227.596 87.3024 229.694 90.3062 232.639 92.878C238.797 98.2557 246.329 99.708 249.46 96.1217C252.592 92.5354 250.138 85.2686 243.98 79.8909C241.034 77.3191 237.775 75.6451 234.833 74.9906Z" fill="#18B800"/>
</svg>
