<svg width="50" height="38" viewBox="0 0 50 38" fill="none" xmlns="http://www.w3.org/2000/svg">
<path d="M49.312 18.9849C49.312 29.47 38.3405 37.8371 24.8064 37.8371C11.2723 37.8371 0 29.47 0 18.9849C0 8.49983 11.2723 0 24.8064 0C38.3405 0 49.312 8.49983 49.312 18.9849Z" fill="#FF9448"/>
<path fill-rule="evenodd" clip-rule="evenodd" d="M28.7809 9.39152C29.4933 8.87041 29.9202 8.20619 29.9202 7.4828C29.9202 5.80861 27.6336 4.45142 24.813 4.45142C21.9924 4.45142 19.7059 5.80861 19.7059 7.4828C19.7059 8.20619 20.1328 8.87041 20.8452 9.39152C19.9323 8.8845 18.7055 8.5741 17.3566 8.5741C14.536 8.5741 12.2495 9.9313 12.2495 11.6055C12.2495 13.2797 14.536 14.6369 17.3566 14.6369C18.7055 14.6369 19.9323 14.3265 20.8452 13.8194C20.1328 14.3406 19.7059 15.0048 19.7059 15.7282C19.7059 17.4024 21.9924 18.7595 24.813 18.7595C27.6336 18.7595 29.9202 17.4024 29.9202 15.7282C29.9202 15.0048 29.4933 14.3406 28.7809 13.8194C29.6938 14.3265 30.9206 14.6369 32.2695 14.6369C35.0901 14.6369 37.3766 13.2797 37.3766 11.6055C37.3766 9.9313 35.0901 8.5741 32.2695 8.5741C30.9206 8.5741 29.6938 8.8845 28.7809 9.39152Z" fill="#18B800"/>
</svg>
