<svg width="37" height="36" viewBox="0 0 37 36" fill="none" xmlns="http://www.w3.org/2000/svg">
<g clip-path="url(#clip0_69_246)">
<path d="M0.0588379 0H30.2988C31.8265 0 33.2916 0.606855 34.3718 1.68706C35.452 2.76727 36.0588 4.23235 36.0588 5.76V30.24C36.0588 31.7676 35.452 33.2327 34.3718 34.3129C33.2916 35.3931 31.8265 36 30.2988 36H5.81884C4.29119 36 2.82611 35.3931 1.7459 34.3129C0.665693 33.2327 0.0588379 31.7676 0.0588379 30.24L0.0588379 0Z" fill="#663399"/>
<path d="M12.9503 33.12C10.638 33.1179 9.21131 31.8157 9.23867 29.4196V23.3575C9.23867 22.1429 9.59435 21.2191 10.3057 20.587C11.5833 19.3561 14.5476 19.2813 15.7989 20.6057C16.5701 21.2857 16.8609 22.675 16.7918 23.9713H14.1379C14.1581 23.4619 14.1311 22.6905 13.8315 22.3999C13.4424 21.8733 12.4146 21.9352 12.1428 22.4835C11.9757 22.7808 11.8922 23.2211 11.8922 23.8036V29.0661C11.8922 30.1695 12.2756 30.7275 13.0428 30.7397C13.4013 30.7397 13.6739 30.6094 13.8593 30.3491C14.1181 30.0402 14.1584 29.3562 14.1375 28.8616H16.7915C16.9729 31.3841 15.4839 33.1513 12.9499 33.12H12.9503ZM21.3757 33.12C18.8136 33.1553 17.6673 31.3323 17.7383 28.8616H20.2435C20.174 29.9387 20.5441 30.9197 21.4311 30.8513C21.8268 30.8513 22.1054 30.7275 22.2663 30.4794C22.5723 30.0262 22.6296 28.7172 22.1922 28.2107C21.8865 27.7229 20.7871 27.2923 20.2064 27.0022C19.3773 26.6055 18.7805 26.1346 18.4154 25.5888C17.5921 24.3778 17.6684 21.7195 18.8237 20.6424C19.9461 19.3133 22.8776 19.2521 24.0012 20.6147C24.6942 21.3171 24.9969 22.6991 24.9383 23.971H22.5255C22.5461 23.4483 22.4967 22.6048 22.2937 22.2973C22.1515 22.0371 21.8822 21.9067 21.4866 21.9067C20.7813 21.9067 20.4289 22.3283 20.4289 23.1711C20.4365 24.066 20.7853 24.4332 21.5982 24.8073C22.6508 25.2162 23.9893 25.9146 24.4746 26.7599C25.9218 29.3353 24.9289 33.2694 21.3753 33.1193L21.3757 33.12ZM29.4671 33.12C26.9049 33.1553 25.7587 31.3323 25.8296 28.8616H28.3349C28.2654 29.9387 28.6355 30.9197 29.5225 30.8513C29.9181 30.8513 30.1968 30.7275 30.3577 30.4794C30.6637 30.0262 30.7209 28.7172 30.2836 28.2107C29.9779 27.7229 28.8785 27.2923 28.2978 27.0022C27.4687 26.6055 26.8718 26.1346 26.5068 25.5888C25.6835 24.3778 25.7598 21.7195 26.915 20.6424C28.0375 19.3133 30.969 19.2521 32.0926 20.6147C32.7855 21.3171 33.0883 22.6991 33.0296 23.971H30.6169C30.6374 23.4483 30.5881 22.6048 30.3851 22.2973C30.2429 22.0371 29.9736 21.9067 29.5779 21.9067C28.8727 21.9067 28.5203 22.3283 28.5203 23.1711C28.5278 24.066 28.8767 24.4332 29.6896 24.8073C30.7422 25.2162 32.0807 25.9146 32.5659 26.7599C34.0131 29.3353 33.0203 33.2694 29.4667 33.1193L29.4671 33.12Z" fill="#FFF4C5"/>
</g>
<defs>
<clipPath id="clip0_69_246">
<rect width="36" height="36" fill="white" transform="translate(0.0588379)"/>
</clipPath>
</defs>
</svg>
