<svg width="40" height="40" viewBox="0 0 40 40" fill="none" xmlns="http://www.w3.org/2000/svg">
<path d="M25 36.6667V30C25.2319 27.9122 24.6332 25.8169 23.3333 24.1667C28.3333 24.1667 33.3333 20.8334 33.3333 15C33.4667 12.9167 32.8833 10.8667 31.6667 9.16671C32.1333 7.25004 32.1333 5.25004 31.6667 3.33337C31.6667 3.33337 30 3.33337 26.6667 5.83337C22.2667 5.00004 17.7333 5.00004 13.3333 5.83337C10 3.33337 8.33333 3.33337 8.33333 3.33337C7.83333 5.25004 7.83333 7.25004 8.33333 9.16671C7.11979 10.8598 6.53079 12.9214 6.66667 15C6.66667 20.8334 11.6667 24.1667 16.6667 24.1667C16.0167 24.9834 15.5333 25.9167 15.25 26.9167C14.9667 27.9167 14.8833 28.9667 15 30V36.6667" stroke="#484848" stroke-width="2" stroke-linecap="round" stroke-linejoin="round"/>
<path d="M15 30C7.48333 33.3333 6.66667 26.6666 3.33333 26.6666" stroke="#484848" stroke-width="2" stroke-linecap="round" stroke-linejoin="round"/>
</svg>
