<svg width="22" height="22" viewBox="0 0 22 22" fill="none" xmlns="http://www.w3.org/2000/svg">
<path d="M8.03034 19.6566C2.99193 21.297 2.99193 16.7272 1 16.1414M15.0607 22V17.899C15.0607 16.7272 15.1779 16.2586 14.4748 15.5555C17.7556 15.204 20.9193 13.9151 20.9193 8.52518C20.9179 7.12493 20.3716 5.78019 19.3961 4.77566C19.8536 3.55937 19.8115 2.21149 19.2789 1.02615C19.2789 1.02615 17.99 0.674629 15.1779 2.54939C12.796 1.92906 10.295 1.92906 7.91317 2.54939C5.10103 0.674629 3.81214 1.02615 3.81214 1.02615C3.27957 2.21149 3.23745 3.55937 3.69496 4.77566C2.71945 5.78019 2.17315 7.12493 2.17172 8.52518C2.17172 13.9151 5.33538 15.204 8.6162 15.5555C7.91317 16.2586 7.91317 16.9616 8.03034 17.899V22" stroke="#FF9448" stroke-width="2"/>
</svg>
