<svg width="23" height="23" viewBox="0 0 23 23" fill="none" xmlns="http://www.w3.org/2000/svg">
<path d="M1.7 8H21.3M1.7 15H21.3M10.9167 1C8.95123 4.14955 7.90924 7.78751 7.90924 11.5C7.90924 15.2125 8.95123 18.8505 10.9167 22M12.0833 1C14.0488 4.14955 15.0908 7.78751 15.0908 11.5C15.0908 15.2125 14.0488 18.8505 12.0833 22M1 11.5C1 12.8789 1.27159 14.2443 1.79926 15.5182C2.32694 16.7921 3.10036 17.9496 4.07538 18.9246C5.05039 19.8996 6.20791 20.6731 7.48182 21.2007C8.75574 21.7284 10.1211 22 11.5 22C12.8789 22 14.2443 21.7284 15.5182 21.2007C16.7921 20.6731 17.9496 19.8996 18.9246 18.9246C19.8996 17.9496 20.6731 16.7921 21.2007 15.5182C21.7284 14.2443 22 12.8789 22 11.5C22 8.71523 20.8938 6.04451 18.9246 4.07538C16.9555 2.10625 14.2848 1 11.5 1C8.71523 1 6.04451 2.10625 4.07538 4.07538C2.10625 6.04451 1 8.71523 1 11.5Z" stroke="#FF9448" stroke-width="2"/>
</svg>
