<svg width="37" height="36" viewBox="0 0 37 36" fill="none" xmlns="http://www.w3.org/2000/svg">
<path fill-rule="evenodd" clip-rule="evenodd" d="M31.1223 0H0.882324V30.24C0.882324 31.7676 1.48918 33.2327 2.56939 34.3129C3.6496 35.3931 5.11468 36 6.64232 36H31.1223C32.65 36 34.115 35.3931 35.1953 34.3129C36.2755 33.2327 36.8823 31.7676 36.8823 30.24V5.76C36.8823 4.23235 36.2755 2.76727 35.1953 1.68706C34.115 0.606855 32.65 0 31.1223 0ZM11.8809 30.4545H13.4747V21.8881H11.8809V25.2924H9.77739V21.8881H8.18364V30.4545H9.77739V26.6987H11.8809V30.4545ZM15.6752 30.4545H17.2631V23.2885H18.9037V21.8881H14.0346V23.2885H15.6752V30.4545ZM20.8933 23.1596L22.5222 30.4545H24.2625L25.8855 23.1713H25.9324C25.8777 23.6752 25.8504 24.1674 25.8504 24.6479V30.4545H27.3621V21.8881H24.8777L23.4246 28.6206H23.3777L21.9129 21.8881H19.4636V30.4545H20.9402V24.7065C20.9402 24.2377 20.9031 23.7221 20.8289 23.1596H20.8933ZM28.5138 21.8881V30.4545H32.3165V29.06H30.1075V21.8881H28.5138Z" fill="#FF9448"/>
</svg>
