<svg width="40" height="40" viewBox="0 0 40 40" fill="none" xmlns="http://www.w3.org/2000/svg">
<path d="M26.6667 13.3334C29.3188 13.3334 31.8624 14.3869 33.7377 16.2623C35.6131 18.1377 36.6667 20.6812 36.6667 23.3334V35H30V23.3334C30 22.4493 29.6488 21.6015 29.0237 20.9764C28.3986 20.3512 27.5507 20 26.6667 20C25.7826 20 24.9348 20.3512 24.3096 20.9764C23.6845 21.6015 23.3333 22.4493 23.3333 23.3334V35H16.6667V23.3334C16.6667 20.6812 17.7202 18.1377 19.5956 16.2623C21.471 14.3869 24.0145 13.3334 26.6667 13.3334Z" stroke="#484848" stroke-width="2" stroke-linecap="round" stroke-linejoin="round"/>
<path d="M10 15H3.33333V35H10V15Z" stroke="#484848" stroke-width="2" stroke-linecap="round" stroke-linejoin="round"/>
<path d="M6.66667 10C8.50761 10 10 8.50766 10 6.66671C10 4.82576 8.50761 3.33337 6.66667 3.33337C4.82572 3.33337 3.33333 4.82576 3.33333 6.66671C3.33333 8.50766 4.82572 10 6.66667 10Z" stroke="#484848" stroke-width="2" stroke-linecap="round" stroke-linejoin="round"/>
</svg>
