<svg width="53" height="21" viewBox="0 0 53 21" fill="none" xmlns="http://www.w3.org/2000/svg">
<g clip-path="url(#clip0_58_163)">
<path fill-rule="evenodd" clip-rule="evenodd" d="M27.8662 7.11719C27.4216 6.72826 26.6627 6.53401 25.5893 6.53401H23.1681V14.3163H24.9785V11.8772H25.7895C26.7738 11.8772 27.4956 11.6519 27.9549 11.2008C28.4723 10.6955 28.7327 10.0226 28.7327 9.18263C28.7327 8.31157 28.4437 7.62294 27.8662 7.11719ZM25.7445 10.1163H24.9785V8.29494H25.6667C26.5037 8.29494 26.9223 8.60032 26.9223 9.21107C26.9223 9.81394 26.5294 10.1163 25.7445 10.1163ZM31.8306 6.53357H29.9428V14.3158H34.0188V12.5544H31.8306V6.53357ZM37.7174 6.53357L34.752 14.3158H36.7845L37.1731 13.1844H39.7499L40.1054 14.3158H42.1606L39.2162 6.53357H37.7174ZM37.6951 11.609L38.4729 8.94901L39.2384 11.609H37.6951Z" fill="#84B47D"/>
<mask id="mask0_58_163" style="mask-type:luminance" maskUnits="userSpaceOnUse" x="0" y="0" width="53" height="21">
<path d="M0 20.7694H53V0H0V20.7694Z" fill="white"/>
</mask>
<g mask="url(#mask0_58_163)">
<path fill-rule="evenodd" clip-rule="evenodd" d="M43.1037 14.3159H44.9919V6.53363H43.1037V14.3159ZM52.3228 7.99225C52.0843 7.63256 51.778 7.32699 51.4226 7.09406C50.8527 6.72044 50.0749 6.53406 49.0902 6.53406H46.6026V14.3159H49.5125C50.5641 14.3159 51.4079 13.9584 52.0447 13.2427C52.6816 12.5274 52.9996 11.578 52.9996 10.3954C52.9996 9.45481 52.7741 8.65375 52.3228 7.99225ZM49.3014 12.5541H48.4908V8.29544H49.3127C49.8902 8.29544 50.334 8.48356 50.6453 8.8585C50.9566 9.23344 51.1122 9.76544 51.1122 10.4541C51.1122 11.8541 50.5086 12.5541 49.3014 12.5541ZM7.83937 0L1.7204 1.66687L0.0340714 8.06706L2.14313 10.3193L0 12.5344L1.58706 18.9626L7.67953 20.7331L9.82309 18.5176L11.9322 20.7694L18.0511 19.1026L19.737 12.7019L17.6284 10.4506L19.7715 8.2355L18.1845 1.80688L12.0912 0.0363125L9.94844 2.25137L7.83937 0ZM4.08436 2.898L7.30769 2.0195L8.71724 3.5245L6.66159 5.649L4.08436 2.898ZM11.1603 3.54463L12.5925 2.06456L15.802 2.99731L13.1827 5.70413L11.1603 3.54463ZM1.96521 7.54163L2.85317 4.17069L5.42956 6.92169L3.37433 9.04619L1.96521 7.54119V7.54163ZM14.3937 6.99781L17.013 4.29012L17.8484 7.67637L16.4165 9.15688L14.3937 6.99781ZM7.87302 6.94225L9.92867 4.81775L11.9507 6.97725L9.89544 9.10175L7.87302 6.94225ZM4.58618 10.3394L6.6414 8.21494L8.66466 10.3744L6.6086 12.4989L4.58618 10.3394ZM11.1073 10.395L13.1625 8.2705L15.1849 10.43L13.1293 12.5545L11.1073 10.395ZM1.9223 13.0931L3.35498 11.6121L5.37698 13.7721L2.75852 16.4784L1.9223 13.0931ZM7.82002 13.7922L9.87567 11.6677L11.8981 13.8272L9.84286 15.9517L7.82002 13.7922ZM14.3407 13.8482L16.3963 11.7237L17.8059 13.2283L16.9184 16.5992L14.3407 13.8482ZM3.96953 17.7726L6.5884 15.0649L8.61166 17.2244L7.17898 18.7053L3.96953 17.7726ZM11.0543 17.2449L13.1095 15.1204L15.6863 17.8719L12.4634 18.7499L11.0543 17.2449Z" fill="#84B47D"/>
</g>
</g>
<defs>
<clipPath id="clip0_58_163">
<rect width="53" height="21" fill="white"/>
</clipPath>
</defs>
</svg>
