<svg width="36" height="36" viewBox="0 0 36 36" fill="none" xmlns="http://www.w3.org/2000/svg">
<path d="M18.0001 10.2797C10.9205 10.2797 5.18018 8.28032 5.18018 5.6405V30.3596C5.18018 32.8998 10.8206 34.9597 17.8198 35.0002H18.0001C25.0797 35.0002 30.8201 32.9997 30.8201 30.3596V5.6405C30.8201 8.22013 25.0797 10.2797 18.0001 10.2797Z" fill="url(#paint0_linear_69_239)"/>
<path d="M27.8404 5.26022C27.8404 6.90047 23.4197 8.22009 18 8.22009C12.5804 8.22009 8.15967 6.90047 8.15967 5.26022C8.15967 3.61997 12.5804 2.32031 18 2.32031C23.4197 2.32031 27.8404 3.63966 27.8404 5.26022Z" fill="#FF9448"/>
<path d="M18 5.99957C15.3604 5.93259 12.7288 6.31832 10.2195 7.14004C12.7312 7.94664 15.3636 8.31204 18 8.22004C20.6417 8.29716 23.2762 7.90434 25.7805 7.05988C23.2639 6.27661 20.6344 5.91826 18 5.99957Z" fill="#FF9448"/>
<path d="M25.8001 22.7998V16.0006H23.9995V24.2601H28.9203V22.7998H25.8001ZM11.5202 19.46C11.1485 19.3105 10.8037 19.1012 10.4995 18.8404C10.4189 18.755 10.3562 18.6544 10.315 18.5444C10.2738 18.4344 10.2551 18.3173 10.2599 18.2C10.2538 18.0826 10.2782 17.9656 10.3308 17.8604C10.3834 17.7553 10.4624 17.6656 10.56 17.6001C10.8061 17.4298 11.1014 17.3453 11.4004 17.3596C12.1126 17.3279 12.8153 17.5317 13.4001 17.9395V16.2202C12.7614 15.9818 12.0816 15.8731 11.4004 15.9005C10.6156 15.8584 9.84177 16.0993 9.21956 16.5794C8.94857 16.7885 8.73116 17.059 8.58525 17.3687C8.43933 17.6783 8.36909 18.0182 8.38031 18.3603C8.38031 19.3798 9.01959 20.1797 10.38 20.7796C10.8216 20.9675 11.2378 21.2091 11.6203 21.5001C11.7138 21.5785 11.789 21.6764 11.8408 21.7868C11.8926 21.8973 11.9197 22.0177 11.9201 22.1397C11.9201 22.3869 11.8003 22.6176 11.6003 22.7604C11.3277 22.9195 11.0147 22.9958 10.6995 22.9801C9.8951 22.9734 9.12053 22.6747 8.51981 22.1397V23.9996C9.18028 24.3405 9.91732 24.5058 10.6601 24.4797C11.4982 24.5292 12.3288 24.2975 13.0198 23.8193C13.2638 23.5883 13.4505 23.3036 13.5651 22.9879C13.6797 22.6721 13.7191 22.3339 13.6802 22.0002C13.69 21.4882 13.5121 20.9903 13.1801 20.6004C12.7128 20.1082 12.1473 19.7196 11.5202 19.46ZM22.0001 22.6395C22.4541 21.8792 22.683 21.0056 22.6602 20.1203C22.6149 19.3706 22.3884 18.643 22.0001 18C21.6879 17.3756 21.2018 16.8548 20.6003 16.5004C19.9906 16.1545 19.3008 15.9749 18.5998 15.9795C17.8444 15.9632 17.0985 16.1499 16.4398 16.5201C15.8223 16.8645 15.3158 17.3779 14.9798 18C14.6258 18.707 14.4475 19.4889 14.4601 20.2795C14.4641 20.9745 14.6284 21.6592 14.9402 22.2803C15.2456 22.8979 15.7253 23.4123 16.32 23.76C16.9242 24.128 17.6127 24.3346 18.3197 24.3599L20.0401 26.3596H22.4602L19.9993 24.1602C20.828 23.9116 21.5387 23.3714 22.0001 22.6395ZM19.9993 22.1397C19.8174 22.3659 19.5855 22.5468 19.3219 22.6682C19.0583 22.7896 18.7701 22.8482 18.48 22.8395C18.1876 22.8491 17.8971 22.7888 17.6327 22.6637C17.3682 22.5385 17.1375 22.352 16.9596 22.1197C16.5376 21.542 16.3322 20.8342 16.3793 20.1203C16.3334 19.4062 16.5387 18.6985 16.9596 18.1198C17.1477 17.8877 17.3856 17.7008 17.6556 17.5727C17.9256 17.4447 18.2209 17.3789 18.5197 17.3801C18.8118 17.3672 19.1025 17.4282 19.3649 17.5575C19.6272 17.6868 19.8527 17.8802 20.0204 18.1198C20.4141 18.7097 20.6036 19.4125 20.5598 20.1203C20.6301 20.8397 20.4303 21.5595 19.9993 22.1397Z" fill="url(#paint1_linear_69_239)"/>
<defs>
<linearGradient id="paint0_linear_69_239" x1="5.18011" y1="20.32" x2="30.8201" y2="20.32" gradientUnits="userSpaceOnUse">
<stop offset="1" stop-color="#FF9448"/>
</linearGradient>
<linearGradient id="paint1_linear_69_239" x1="4055.66" y1="4720.06" x2="25267.7" y2="4720.06" gradientUnits="userSpaceOnUse">
<stop offset="1" stop-color="#FFF4C5"/>
</linearGradient>
</defs>
</svg>
