<svg width="1280" height="831" viewBox="0 0 1280 831" fill="none" xmlns="http://www.w3.org/2000/svg">
<path fill-rule="evenodd" clip-rule="evenodd" d="M831.28 21.3734C868.83 69.9318 886.992 127.136 886.811 183.175C895.388 122.155 926.166 65.0577 977.726 25.1861C1085.54 -58.1869 1243.39 -34.6709 1330.3 77.7104C1417.2 190.092 1400.25 348.782 1292.44 432.155C1240.88 472.026 1177.88 487.452 1116.66 480.403C1170.94 494.325 1221.74 526.293 1259.29 574.851C1346.2 687.232 1329.25 845.922 1221.43 929.295C1113.62 1012.67 955.77 989.152 868.865 876.771C831.314 828.213 813.153 771.009 813.333 714.97C804.756 775.99 773.978 833.087 722.418 872.958C614.606 956.331 456.755 932.815 369.849 820.434C282.943 708.053 299.892 549.363 407.705 465.99C459.265 426.118 522.268 410.692 583.483 417.742C529.201 403.82 478.405 371.852 440.854 323.294C353.949 210.912 370.897 52.2221 478.71 -31.1508C586.523 -114.524 744.374 -91.0078 831.28 21.3734ZM880.28 230.446C880.428 184.37 865.495 137.335 834.62 97.4092C763.164 5.00683 633.376 -14.3285 544.73 54.2226C456.083 122.774 442.148 253.252 513.604 345.655C544.479 385.581 586.244 411.865 630.876 423.312C580.544 417.516 528.741 430.199 486.347 462.983C397.701 531.534 383.766 662.012 455.222 754.415C526.677 846.817 656.466 866.152 745.112 797.601C787.505 764.818 812.812 717.872 819.864 667.7C819.716 713.776 834.648 760.81 865.523 800.736C936.979 893.139 1066.77 912.474 1155.41 843.923C1244.06 775.372 1258 644.893 1186.54 552.491C1155.66 512.565 1113.9 486.281 1069.27 474.833C1119.6 480.629 1171.4 467.946 1213.8 435.163C1302.44 366.612 1316.38 236.133 1244.92 143.731C1173.47 51.3283 1043.68 31.9929 955.031 100.544C912.638 133.327 887.331 180.274 880.28 230.446ZM889 418.969C907.464 442.845 903.758 476.641 880.722 494.455C857.687 512.268 824.045 507.354 805.581 483.477C787.118 459.601 790.824 425.805 813.859 407.991C836.895 390.178 870.537 395.092 889 418.969Z" fill="#FF9448" fill-opacity="0.19"/>
<path fill-rule="evenodd" clip-rule="evenodd" d="M1150.39 143.969C1140.42 204.537 1110.91 256.801 1069.76 294.842C1120.28 259.554 1183.05 243.193 1247.36 253.78C1381.84 275.917 1472.15 407.499 1449.07 547.676C1426 687.854 1298.27 783.544 1163.8 761.407C1099.48 750.82 1045.27 715.203 1008.73 665.586C1035.52 714.809 1046.72 773.773 1036.75 834.342C1013.67 974.519 885.948 1070.21 751.468 1048.07C616.989 1025.94 526.679 894.353 549.754 754.176C559.724 693.607 589.232 641.344 630.381 603.303C579.866 638.591 517.099 654.952 452.787 644.365C318.308 622.228 227.997 490.646 251.072 350.468C274.147 210.291 401.87 114.601 536.349 136.738C600.662 147.324 654.872 182.942 691.411 232.559C664.627 183.336 653.428 124.372 663.399 63.8029C686.474 -76.3744 814.197 -172.065 948.676 -149.928C1083.16 -127.791 1173.47 3.79133 1150.39 143.969ZM1030.71 322.26C1064.54 290.982 1088.8 248.01 1097 198.209C1115.97 82.9523 1041.72 -25.2374 931.146 -43.439C820.574 -61.6407 715.557 17.0382 696.585 132.295C688.387 182.096 697.594 230.578 719.617 271.05C689.574 230.254 645.001 200.968 592.122 192.264C481.55 174.062 376.533 252.741 357.56 367.998C338.587 483.255 412.843 591.444 523.415 609.646C576.293 618.351 627.902 604.898 669.436 575.884C635.603 607.163 611.341 650.134 603.143 699.935C584.17 815.192 658.426 923.382 768.997 941.583C879.569 959.785 984.586 881.106 1003.56 765.849C1011.76 716.048 1002.55 667.567 980.527 627.094C1010.57 667.891 1055.14 697.176 1108.02 705.881C1218.59 724.082 1323.61 645.403 1342.58 530.146C1361.56 414.89 1287.3 306.7 1176.73 288.498C1123.85 279.794 1072.24 293.246 1030.71 322.26ZM898.629 457.065C893.726 486.847 866.459 507.156 837.726 502.426C808.993 497.696 789.675 469.719 794.577 439.937C799.48 410.155 826.747 389.847 855.48 394.577C884.213 399.306 903.531 427.284 898.629 457.065Z" fill="#FF9448" fill-opacity="0.19"/>
<path d="M1095 684.158C1095 717.965 1059.62 744.944 1015.98 744.944C972.346 744.944 936 717.965 936 684.158C936 650.35 972.346 622.944 1015.98 622.944C1059.62 622.944 1095 650.35 1095 684.158Z" fill="#FF9448"/>
<path fill-rule="evenodd" clip-rule="evenodd" d="M1028.8 653.225C1031.1 651.545 1032.47 649.403 1032.47 647.071C1032.47 641.673 1025.1 637.297 1016.01 637.297C1006.91 637.297 999.539 641.673 999.539 647.071C999.539 649.403 1000.92 651.545 1003.21 653.225C1000.27 651.591 996.313 650.59 991.964 650.59C982.869 650.59 975.497 654.966 975.497 660.364C975.497 665.762 982.869 670.138 991.964 670.138C996.313 670.138 1000.27 669.137 1003.21 667.503C1000.92 669.183 999.539 671.324 999.539 673.657C999.539 679.055 1006.91 683.431 1016.01 683.431C1025.1 683.431 1032.47 679.055 1032.47 673.657C1032.47 671.324 1031.1 669.183 1028.8 667.503C1031.74 669.137 1035.7 670.138 1040.05 670.138C1049.14 670.138 1056.52 665.762 1056.52 660.364C1056.52 654.966 1049.14 650.59 1040.05 650.59C1035.7 650.59 1031.74 651.591 1028.8 653.225Z" fill="#18B800"/>
<path d="M1218.7 669.966C1205.22 700.969 1148.46 742.779 1108.44 725.375C1068.42 707.971 1059.41 637.557 1072.89 606.554C1086.38 575.552 1133.43 558.495 1173.45 575.899C1213.47 593.303 1232.18 638.963 1218.7 669.966Z" fill="#FF9448"/>
<path fill-rule="evenodd" clip-rule="evenodd" d="M1173.12 608.779C1175.9 608.155 1178.02 606.74 1178.95 604.601C1181.1 599.65 1176.08 592.697 1167.74 589.07C1159.4 585.443 1150.9 586.515 1148.74 591.466C1147.81 593.605 1148.22 596.118 1149.66 598.575C1147.61 595.901 1144.38 593.406 1140.39 591.672C1132.05 588.044 1123.55 589.117 1121.4 594.067C1119.24 599.018 1124.26 605.971 1132.6 609.598C1136.59 611.333 1140.61 611.992 1143.96 611.667C1141.19 612.292 1139.07 613.707 1138.14 615.846C1135.99 620.796 1141 627.75 1149.34 631.377C1157.68 635.004 1166.19 633.931 1168.34 628.981C1169.27 626.842 1168.87 624.329 1167.43 621.872C1169.48 624.545 1172.7 627.04 1176.69 628.775C1185.03 632.402 1193.54 631.329 1195.69 626.379C1197.84 621.429 1192.83 614.475 1184.49 610.848C1180.5 609.114 1176.47 608.454 1173.12 608.779Z" fill="#18B800"/>
</svg>
