<svg width="1204" height="993" viewBox="0 0 1204 993" fill="none" xmlns="http://www.w3.org/2000/svg">
<path fill-rule="evenodd" clip-rule="evenodd" d="M206.499 1220.14C209.632 1157.45 221.308 847.472 156.837 670.795C89.0729 485.091 -134.362 250.596 -160.25 223.818C-123.085 226.285 200.25 245.388 385.787 177.169C562.305 112.265 791.4 -96.8698 837.236 -139.758C834.103 -77.064 822.427 232.913 886.898 409.59C954.662 595.293 1178.1 829.789 1203.98 856.567C1166.82 854.1 843.485 834.997 657.948 903.216C481.43 968.12 252.334 1177.25 206.499 1220.14ZM451.971 353.44C433.351 317.238 402.513 286.417 362.061 267.655C268.44 224.232 158.775 261.841 117.117 351.657C75.4596 441.472 117.585 549.483 211.206 592.905C251.658 611.668 295.106 615.302 334.769 606.132C292.932 622.052 257.457 653.065 237.535 696.017C195.877 785.833 238.002 893.844 331.623 937.266C425.245 980.689 534.909 943.08 576.567 853.265C596.489 810.312 597.249 763.198 582.38 720.977C600.999 757.178 631.837 787.999 672.289 806.761C765.91 850.184 875.575 812.575 917.233 722.76C958.89 632.945 916.765 524.934 823.144 481.511C782.692 462.749 739.244 459.115 699.582 468.284C741.418 452.364 776.893 421.352 796.815 378.399C838.473 288.584 796.348 180.573 702.727 137.15C609.106 93.7279 499.44 131.337 457.783 221.152C437.861 264.104 437.101 311.219 451.971 353.44ZM536.384 495.794C561.784 507.576 573.162 536.992 561.795 561.499C550.429 586.005 520.623 596.321 495.223 584.54C469.822 572.758 458.445 543.342 469.811 518.835C481.177 494.329 510.983 484.013 536.384 495.794Z" fill="#FF9448" fill-opacity="0.19"/>
</svg>
