<svg width="1280" height="1202" viewBox="0 0 1280 1202" fill="none" xmlns="http://www.w3.org/2000/svg">
<path fill-rule="evenodd" clip-rule="evenodd" d="M874.435 507.921C858.421 442.303 837.385 356.108 860.597 269.48C886.362 173.321 1055.33 -102.121 1134.88 -196.073C1156.79 -74.9322 1165.4 248.089 1139.64 344.248C1116.42 430.876 1055.11 495.005 1008.43 543.825C1003.29 549.196 998.336 554.382 993.625 559.392C1000.33 557.829 1007.31 556.14 1014.55 554.391C1080.29 538.49 1166.64 517.605 1253.48 540.874C1349.87 566.703 1626.11 735.646 1720.36 815.143C1598.99 836.866 1275.29 845.057 1178.89 819.228C1092.05 795.96 1027.71 734.696 978.732 688.057C973.343 682.926 968.14 677.972 963.113 673.264C964.688 679.959 966.389 686.929 968.151 694.149C984.165 759.767 1005.2 845.961 981.99 932.589C956.224 1028.75 787.26 1304.19 707.709 1398.14C685.792 1277 677.186 953.98 702.951 857.821C726.163 771.193 787.478 707.064 834.157 658.245C839.292 652.873 844.25 647.688 848.961 642.677C842.254 644.241 835.271 645.93 828.039 647.679C762.301 663.579 675.949 684.465 589.108 661.196C492.713 635.367 216.478 466.424 122.229 386.926C243.6 365.204 567.298 357.012 663.693 382.841C750.534 406.11 814.874 467.374 863.855 514.013C869.244 519.144 874.447 524.098 879.473 528.805C877.898 522.111 876.197 515.14 874.435 507.921ZM907.945 650.853C935.527 658.244 963.863 641.93 971.235 614.416C978.608 586.901 962.225 558.605 934.643 551.215C907.061 543.824 878.725 560.138 871.352 587.652C863.98 615.167 880.363 643.463 907.945 650.853Z" fill="#18B800" fill-opacity="0.07"/>
<path fill-rule="evenodd" clip-rule="evenodd" d="M954.001 502.06C989.076 444.337 1035.15 368.513 1112.82 323.671C1199.03 273.896 1513.27 198.605 1635.96 188.422C1565.8 289.579 1343.47 524.075 1257.26 573.85C1179.59 618.692 1090.89 620.682 1023.36 622.196C1015.93 622.363 1008.76 622.524 1001.89 622.735C1007.73 626.372 1013.87 630.116 1020.22 633.993C1077.94 669.234 1153.77 715.525 1198.72 793.385C1248.62 879.81 1324.49 1194.6 1334.92 1317.46C1233.74 1246.99 999.056 1023.9 949.158 937.472C904.206 859.613 902.03 770.797 900.374 703.184C900.192 695.745 900.016 688.563 899.79 681.68C896.17 687.527 892.444 693.659 888.585 700.01C853.51 757.733 807.436 833.556 729.768 878.398C643.554 928.174 329.312 1003.46 206.626 1013.65C276.788 912.491 499.113 677.995 585.327 628.219C662.995 583.377 751.698 581.388 819.225 579.873C826.654 579.707 833.827 579.546 840.701 579.334C834.853 575.697 828.721 571.954 822.37 568.076C764.643 532.836 688.814 486.544 643.862 408.685C593.965 322.259 518.098 7.47084 507.667 -115.387C608.849 -44.9245 843.531 178.172 893.429 264.598C938.381 342.457 940.556 431.272 942.212 498.886C942.394 506.325 942.57 513.507 942.796 520.389C946.416 514.542 950.142 508.411 954.001 502.06ZM876.628 626.823C890.905 651.552 922.477 660.054 947.146 645.811C971.815 631.569 980.238 599.976 965.961 575.246C951.683 550.517 920.111 542.016 895.443 556.258C870.774 570.501 862.35 602.094 876.628 626.823Z" fill="#18B800" fill-opacity="0.07"/>
<path d="M1149.95 1002.21C1150.42 1036.01 1115.91 1097.48 1072.28 1098.1C1028.64 1098.71 991.439 1038.25 990.962 1004.45C990.485 970.646 1026.34 935.73 1069.98 935.115C1113.61 934.499 1149.47 968.403 1149.95 1002.21Z" fill="#FF9448"/>
<path fill-rule="evenodd" clip-rule="evenodd" d="M1083.22 965.212C1085.49 963.5 1086.84 961.339 1086.8 959.007C1086.73 953.609 1079.29 949.337 1070.2 949.466C1061.11 949.594 1053.8 954.074 1053.87 959.471C1053.91 961.804 1055.31 963.926 1057.63 965.573C1054.67 963.98 1050.7 963.035 1046.35 963.097C1037.25 963.225 1029.94 967.705 1030.02 973.102C1030.1 978.5 1037.53 982.771 1046.62 982.643C1050.97 982.582 1054.91 981.525 1057.83 979.849C1055.56 981.562 1054.21 983.722 1054.25 986.055C1054.32 991.452 1061.76 995.724 1070.85 995.596C1079.94 995.467 1087.26 990.988 1087.18 985.59C1087.15 983.258 1085.74 981.136 1083.42 979.488C1086.39 981.081 1090.35 982.026 1094.7 981.965C1103.8 981.837 1111.11 977.357 1111.03 971.959C1110.96 966.562 1103.52 962.29 1094.43 962.418C1090.08 962.48 1086.14 963.536 1083.22 965.212Z" fill="#18B800"/>
<path d="M1045.27 1060.62C1044.54 1094.42 1008.59 1120.63 964.966 1119.69C921.337 1118.75 885.58 1091 886.307 1057.2C887.033 1023.4 923.96 996.781 967.589 997.719C1011.22 998.657 1046 1026.82 1045.27 1060.62Z" fill="#FF9448"/>
<path fill-rule="evenodd" clip-rule="evenodd" d="M979.75 1028.27C982.083 1026.64 983.505 1024.53 983.555 1022.2C983.671 1016.8 976.394 1012.26 967.302 1012.07C958.209 1011.87 950.744 1016.09 950.628 1021.49C950.578 1023.82 951.908 1025.99 954.168 1027.72C951.261 1026.02 947.328 1024.94 942.979 1024.84C933.887 1024.65 926.422 1028.86 926.306 1034.26C926.19 1039.66 933.466 1044.19 942.559 1044.39C946.907 1044.48 950.883 1043.56 953.861 1041.99C951.529 1043.62 950.107 1045.74 950.056 1048.07C949.94 1053.46 957.217 1058 966.31 1058.19C975.402 1058.39 982.867 1054.17 982.983 1048.78C983.033 1046.44 981.703 1044.27 979.443 1042.54C982.351 1044.24 986.284 1045.33 990.632 1045.42C999.725 1045.62 1007.19 1041.4 1007.31 1036C1007.42 1030.61 1000.14 1026.07 991.052 1025.88C986.704 1025.78 982.728 1026.7 979.75 1028.27Z" fill="#18B800"/>
<path d="M1245.95 1061.01C1234.76 1088.83 1196.72 1099.31 1160.81 1084.86C1124.91 1070.42 1103.93 1036.18 1115.13 1008.37C1126.32 980.55 1165.3 970.034 1201.21 984.482C1237.11 998.931 1257.14 1033.19 1245.95 1061.01Z" fill="#FF9448"/>
<path fill-rule="evenodd" clip-rule="evenodd" d="M1201.72 1013.64C1204.17 1013.02 1206.01 1011.71 1206.78 1009.79C1208.57 1005.35 1203.95 999.31 1196.47 996.299C1188.99 993.288 1181.47 994.448 1179.69 998.889C1178.91 1000.81 1179.34 1003.03 1180.67 1005.17C1178.79 1002.85 1175.87 1000.72 1172.29 999.277C1164.8 996.265 1157.29 997.425 1155.5 1001.87C1153.71 1006.31 1158.33 1012.35 1165.82 1015.36C1169.39 1016.8 1172.98 1017.29 1175.94 1016.92C1173.5 1017.54 1171.66 1018.85 1170.88 1020.76C1169.1 1025.21 1173.71 1031.25 1181.2 1034.26C1188.68 1037.27 1196.19 1036.11 1197.98 1031.67C1198.75 1029.75 1198.33 1027.53 1197 1025.39C1198.88 1027.71 1201.8 1029.84 1205.38 1031.28C1212.86 1034.29 1220.38 1033.13 1222.16 1028.69C1223.95 1024.25 1219.33 1018.21 1211.85 1015.2C1208.27 1013.76 1204.69 1013.27 1201.72 1013.64Z" fill="#18B800"/>
</svg>
