<svg width="1235" height="1043" viewBox="0 0 1235 1043" fill="none" xmlns="http://www.w3.org/2000/svg">
<path d="M1241.74 508.324C1258.68 398.109 1173.29 342.007 1115.56 333.134C993.796 314.421 946.012 410.94 937.34 461.539C955.085 346.077 866.262 294.82 808.531 285.947C750.8 277.074 652.502 304.944 635.563 415.158C622.657 499.131 625.496 585.524 738.758 739.924C741.253 744.8 744.663 749.608 749.023 754.12C844.629 888.332 859.524 967.844 848.611 1038.85C863.604 941.302 966.089 845.158 1028.71 799.112C1035.55 795.83 1041.26 791.707 1045.78 787.112C1200.18 673.849 1228.83 592.296 1241.74 508.324Z" fill="#E5FFE5" fill-opacity="0.44"/>
<path d="M1045.78 787.112C1200.18 673.849 1228.83 592.296 1241.74 508.324C1258.68 398.109 1173.29 342.007 1115.56 333.134C993.796 314.421 946.012 410.94 937.34 461.539M1045.78 787.112C986.915 826.415 865.066 931.786 848.611 1038.85M1045.78 787.112C1031.99 801.109 1007.23 810.734 973.119 805.491C954.75 802.668 943.377 789.28 946.872 766.538C950.368 743.795 970.081 737.871 983.202 739.888C1004.2 743.114 1017.52 761.279 990.676 778.642M937.34 461.539C955.085 346.077 866.262 294.82 808.531 285.947C750.8 277.074 652.502 304.944 635.563 415.158C622.657 499.131 625.496 585.524 738.758 739.924M937.34 461.539C926.513 502.854 886.491 582.659 813.015 571.366C721.17 557.25 714.497 478.327 750.826 451.677C779.89 430.357 810.053 433.342 832.374 445.407C854.695 457.471 859.266 480.162 857.007 494.857C854.184 513.226 830.306 522.987 812.805 520.297C783.415 515.78 768.797 492.044 770.41 481.548M937.34 461.539C924.111 547.611 967.839 595.161 1025.57 604.034C1117.42 618.15 1147.48 544.873 1120.83 508.544C1099.51 479.48 1076.62 464.143 1037.86 471.617C1012.95 476.422 1001.78 496.692 999.518 511.388C996.695 529.757 1016.54 546.237 1034.04 548.927C1063.43 553.444 1084.5 535.194 1086.11 524.697M738.758 739.924C843.563 882.795 859.904 965.376 848.611 1038.85M738.758 739.924C747.71 757.417 768.436 774.033 802.55 779.276C820.919 782.099 835.787 772.744 839.282 750.002C842.778 727.259 825.753 715.689 812.632 713.672C791.639 710.446 773.474 723.771 793.865 748.394M848.611 1038.85C837.318 1112.33 774.747 1134.94 727.513 1127.69C680.278 1120.43 640.91 1079.46 647.767 1034.84C654.623 990.234 698.018 970.042 734.756 975.689C784.615 983.352 796.935 1025.54 792.095 1057.03C787.255 1088.52 758.997 1097.6 740.628 1094.78C711.762 1090.34 688.344 1067.94 692.377 1041.7C697.217 1010.21 724.265 1009 744.452 1017.47C764.638 1025.95 758.185 1067.93 728.309 1052.6M848.611 1038.85C844.983 1074.11 858.195 1147.77 940.068 1160.35C987.303 1167.61 1037.16 1140.36 1044.01 1095.74C1050.87 1051.13 1015.54 1018.84 978.802 1013.2C928.943 1005.53 904.525 1042.07 899.685 1073.56C894.845 1105.05 919.07 1122.21 937.439 1125.03C966.305 1129.47 995.369 1115.13 999.402 1088.89C1004.24 1057.4 978.807 1048.12 957.008 1050.14C935.208 1052.16 928.755 1094.15 961.858 1088.49" stroke="#9B7373" stroke-opacity="0.4"/>
<path d="M857.939 -18.0512C968.154 -1.11205 996.024 97.1861 987.151 154.917C968.438 276.678 862.023 293.273 811.155 286.35C926.618 304.096 948.837 404.211 939.964 461.942C931.091 519.674 874.989 605.066 764.774 588.127C680.802 575.221 599.249 546.57 485.986 392.169C482.085 388.325 478.523 383.629 475.528 378.116C376.22 246.619 304.851 208.535 233.843 197.621C331.392 212.614 453.874 143.73 516.602 97.8234C521.784 92.2902 527.431 88.0828 533.174 85.1443C687.574 -28.1183 773.967 -30.9572 857.939 -18.0512Z" fill="#F6FFD1" fill-opacity="0.4" style="mix-blend-mode:plus-darker"/>
<path d="M533.174 85.1443C687.574 -28.1183 773.967 -30.9572 857.939 -18.0512C968.154 -1.11205 996.024 97.1861 987.151 154.917C968.438 276.678 862.023 293.273 811.155 286.35M533.174 85.1443C478.007 129.493 340.908 214.076 233.843 197.621M533.174 85.1443C515.681 94.0957 499.065 114.822 493.822 148.936C490.999 167.305 500.354 182.173 523.096 185.669C545.839 189.164 557.409 172.139 559.426 159.018C562.652 138.025 549.327 119.861 524.704 140.251M811.155 286.35C926.618 304.096 948.837 404.211 939.964 461.943C931.091 519.674 874.989 605.066 764.774 588.127C680.802 575.221 599.249 546.57 485.986 392.169M811.155 286.35C768.497 284.27 680.356 298.481 669.064 371.957C654.948 463.802 728.225 493.867 764.554 467.217C793.618 445.897 799.828 416.229 795.023 391.316C790.218 366.402 769.947 355.228 755.252 352.97C736.883 350.146 720.402 369.991 717.713 387.492C713.195 416.883 731.446 437.953 741.943 439.567M811.155 286.35C725.083 273.121 692.859 217.132 701.732 159.401C715.848 67.5557 794.771 60.8828 821.421 97.2123C842.741 126.276 850.497 152.717 831.729 187.439C819.665 209.76 796.974 214.331 782.279 212.072C763.91 209.249 754.149 185.371 756.839 167.87C761.356 138.48 785.092 123.862 795.588 125.476M485.986 392.169C381.182 249.299 307.319 208.914 233.843 197.621M485.986 392.169C471.989 378.378 462.364 353.619 467.607 319.505C470.43 301.136 483.818 289.763 506.56 293.259C529.303 296.754 535.227 316.467 533.21 329.588C529.984 350.581 511.819 363.906 494.456 337.062M233.843 197.621C160.367 186.328 120.004 239.22 112.745 286.455C105.485 333.689 132.743 383.543 177.353 390.399C221.964 397.255 254.255 361.926 259.901 325.188C267.564 275.329 231.025 250.911 199.535 246.071C168.045 241.231 150.892 265.456 148.068 283.825C143.632 312.691 157.968 341.755 184.209 345.789C215.699 350.628 224.981 325.193 222.959 303.394C220.937 281.594 178.951 275.141 184.607 308.244M233.843 197.621C199.123 190.494 132.83 155.772 145.413 73.8987C152.673 26.664 193.643 -12.7034 238.253 -5.84709C282.864 1.00922 303.056 44.4045 297.409 81.1426C289.746 131.001 247.561 143.321 216.071 138.481C184.581 133.641 175.494 105.383 178.317 87.0142C182.753 58.1486 205.155 34.7303 231.397 38.7634C262.887 43.6032 264.102 70.6512 255.627 90.8378C247.152 111.024 205.166 104.571 220.502 74.6948" stroke="#707F2B" stroke-opacity="0.4"/>
</svg>
